<svg width="100" height="100" viewBox="0 0 100 100" fill="none" xmlns="http://www.w3.org/2000/svg">
<rect width="100" height="100" rx="50" fill="url(#paint0_linear_2_11)"/>
<g clip-path="url(#clip0_2_11)">
<path d="M72.5 73.25C72.5 71 80 66.5 80 61.625C80 56 74.75 51.5 68.375 49.625C71 46.625 72.5 43.25 72.5 39.125C72.5 28.625 61.625 20 47.75 20C34.625 20 20 27.875 20 39.125C20 47 26 52.625 28.625 54.875C28.25 59.375 26.375 61.25 26.375 61.25L21.875 65H27.5C33.5 65 38.375 63.125 41.375 60.875V61.625C41.375 69.125 49.625 75.125 60.125 75.125H62.375C63.875 77 68.75 80.375 75.125 80.375C75.5 80 72.5 78.5 72.5 73.25ZM47.75 23.75C59.375 23.75 68.75 30.875 68.75 39.125C68.75 47.375 59 54.5 47 54.5H42.875L42.5 55.25C41.375 56.75 36.875 59.75 30.875 60.875C31.25 59.375 31.25 57.125 31.25 54.125V53C27.5 50 23.375 44.75 23.375 39.5C23.375 31.25 35.375 23.75 47.75 23.75Z" fill="white"/>
</g>
<defs>
<linearGradient id="paint0_linear_2_11" x1="16" y1="6.41346e-07" x2="77" y2="100" gradientUnits="userSpaceOnUse">
<stop stop-color="#6DD5DA"/>
<stop offset="1" stop-color="#6A82E2"/>
</linearGradient>
<clipPath id="clip0_2_11">
<rect width="60" height="60" fill="white" transform="translate(20 20)"/>
</clipPath>
</defs>
</svg>
